<svg width="42" height="42" viewBox="0 0 42 42" fill="none" xmlns="http://www.w3.org/2000/svg">
<path d="M9.37259 3.32167C6.19124 5.92646 10.0548 10.1569 7.2368 13.0858C5.24437 15.1567 1.04722 13.7324 0.402236 16.418C-1.3891 23.877 3.14565 22.9944 7.2368 21.2226C11.328 19.4508 7.91069 31.6948 9.37259 37.4962C10.8345 43.2977 18.5137 41.8358 25.4337 41.8358C32.3537 41.8358 38.4194 42.1353 39.9571 35.8689C41.4949 29.6025 36.2931 16.33 37.9068 13.9383C39.5204 11.5465 43.3744 11.4585 41.4949 7.42881C39.6154 3.39916 36.28 7.33977 33.8061 5.64647C31.5899 4.12954 32.5187 1.20294 29.9616 0.221934C26.7376 -1.01496 23.2221 3.32167 21.6748 3.32167C20.1274 3.32167 12.9389 0.401683 9.37259 3.32167Z" fill="url(#paint0_linear_38202_24)"/>
<path d="M20.9278 30.7669C20.9278 30.7669 21.7924 32.8947 24.7445 32.4856C27.2893 32.1328 27.1947 30.122 27.1947 30.122" stroke="#69755B" stroke-width="0.5" stroke-linecap="round"/>
<circle cx="29.4" cy="23.1" r="4.2" fill="#FCF6F6"/>
<circle cx="27.825" cy="22.575" r="1.575" fill="#69755B"/>
<circle cx="18.9" cy="23.1" r="4.2" fill="#FCF6F6"/>
<circle cx="17.325" cy="22.575" r="1.575" fill="#69755B"/>
<defs>
<linearGradient id="paint0_linear_38202_24" x1="9" y1="1.29427e-06" x2="37" y2="40" gradientUnits="userSpaceOnUse">
<stop stop-color="#9DD458"/>
<stop offset="0.501138" stop-color="#C9DD7A"/>
<stop offset="0.963542" stop-color="#9DD458"/>
</linearGradient>
</defs>
</svg>
